<svg width="1330" height="380" viewBox="0 0 1330 380" fill="none" xmlns="http://www.w3.org/2000/svg">
<rect width="1330" height="380" fill="#ECEFF1"/>
<mask id="mask0_211_491" style="mask-type:alpha" maskUnits="userSpaceOnUse" x="0" y="0" width="1330" height="380">
<rect width="1330" height="380" fill="#ECEFF1"/>
</mask>
<g mask="url(#mask0_211_491)">
<path fill-rule="evenodd" clip-rule="evenodd" d="M1329.87 80H1307.91V135.388L1268.75 96.2225L1253.22 111.748L1292.39 150.914H1237V172.87H1289.09L1249.93 212.035L1265.45 227.561L1307.91 185.101V243.784H1329.87V188.396L1369.04 227.561L1384.56 212.035L1345.4 172.87H1400.78V150.914H1342.1L1381.27 111.748L1365.74 96.2228L1329.87 132.093V80Z" fill="#F7F7F7"/>
<path d="M350 0C350 9.19253 348.189 18.2951 344.672 26.7878C341.154 35.2806 335.998 42.9974 329.497 49.4975C322.997 55.9976 315.281 61.1537 306.788 64.6716C298.295 68.1894 289.193 70 280 70C270.807 70 261.705 68.1894 253.212 64.6716C244.719 61.1537 237.003 55.9976 230.503 49.4975C224.002 42.9974 218.846 35.2806 215.328 26.7878C211.811 18.295 210 9.19253 210 -7.62939e-06L240.846 0C240.846 5.14175 241.859 10.2332 243.827 14.9835C245.794 19.7339 248.678 24.0502 252.314 27.6859C255.95 31.3217 260.266 34.2058 265.016 36.1734C269.767 38.1411 274.858 39.1538 280 39.1538C285.142 39.1538 290.233 38.1411 294.984 36.1734C299.734 34.2058 304.05 31.3217 307.686 27.6859C311.322 24.0502 314.206 19.7339 316.173 14.9835C318.141 10.2332 319.154 5.14175 319.154 0H350Z" fill="white"/>
<path d="M350 0C350 9.19253 348.189 18.2951 344.672 26.7878C341.154 35.2806 335.998 42.9974 329.497 49.4975C322.997 55.9976 315.281 61.1537 306.788 64.6716C298.295 68.1894 289.193 70 280 70V39.1538C285.142 39.1538 290.233 38.1411 294.984 36.1734C299.734 34.2058 304.05 31.3217 307.686 27.6859C311.322 24.0502 314.206 19.7339 316.173 14.9835C318.141 10.2332 319.154 5.14175 319.154 0H350Z" fill="#C7D9DE"/>
<path d="M340.786 83.7542C339.136 80.8093 336.384 78.6406 333.135 77.7251C329.886 76.8096 326.406 77.2223 323.461 78.8724C320.516 80.5226 318.347 83.2749 317.432 86.5241C316.516 89.7732 316.929 93.2529 318.579 96.1978L340.786 83.7542Z" fill="#E07357"/>
<path d="M1085.55 145C1083.82 147.95 1083.32 151.47 1084.18 154.786C1085.03 158.101 1087.17 160.94 1090.12 162.678C1093.07 164.416 1096.59 164.911 1099.91 164.054C1103.22 163.197 1106.06 161.058 1107.8 158.107L1085.55 145Z" fill="#8DD6EA"/>
<rect x="665" y="93.256" width="23.6797" height="23.6797" transform="rotate(45 665 93.256)" stroke="#7BB4C3" stroke-opacity="0.14" stroke-width="5"/>
<path d="M77.8271 207.387L72.6041 178.604L101.387 183.827L77.8271 207.387Z" stroke="#DCE7EB" stroke-width="5"/>
</g>
</svg>
